<?xml version="1.0" encoding="UTF-8" standalone="no"?>
<svg
   viewBox="0 0 24 24"
   width="64"
   height="64"
   fill="currentColor"
   version="1.1"
   id="svg1"
   sodipodi:docname="issues-line.svg"
   inkscape:version="1.4.2 (f4327f4, 2025-05-13)"
   xmlns:inkscape="http://www.inkscape.org/namespaces/inkscape"
   xmlns:sodipodi="http://sodipodi.sourceforge.net/DTD/sodipodi-0.dtd"
   xmlns="http://www.w3.org/2000/svg"
   xmlns:svg="http://www.w3.org/2000/svg">
  <defs
     id="defs1" />
  <sodipodi:namedview
     id="namedview1"
     pagecolor="#ffffff"
     bordercolor="#000000"
     borderopacity="0.25"
     inkscape:showpageshadow="2"
     inkscape:pageopacity="0.0"
     inkscape:pagecheckerboard="0"
     inkscape:deskcolor="#d1d1d1"
     showgrid="true"
     inkscape:zoom="23.157747"
     inkscape:cx="27.161537"
     inkscape:cy="16.49556"
     inkscape:window-width="2560"
     inkscape:window-height="1334"
     inkscape:window-x="-11"
     inkscape:window-y="-11"
     inkscape:window-maximized="1"
     inkscape:current-layer="svg1">
    <inkscape:grid
       id="grid1"
       units="px"
       originx="0"
       originy="0"
       spacingx="0.375"
       spacingy="0.375"
       empcolor="#0099e5"
       empopacity="0.30196078"
       color="#0099e5"
       opacity="0.14901961"
       empspacing="5"
       enabled="true"
       visible="true" />
  </sodipodi:namedview>
  <path
     d="m 2.7762818,29.25 c 4.4183,0 8.0000002,-3.5817 8.0000002,-8 0,-4.41828 -3.5817002,-8 -8.0000002,-8 -4.41828,0 -8,3.58172 -8,8 0,4.4183 3.58172,8 8,8 z m 0,2 c -5.52285,0 -10,-4.4772 -10,-10 0,-5.52285 4.47715,-10 10,-10 5.5228,0 10.0000002,4.47715 10.0000002,10 0,5.5228 -4.4772002,10 -10.0000002,10 z m 0,-8 c -1.1046,0 -2.00000003,-0.8954 -2.00000003,-2 0,-1.1046 0.89540003,-2 2.00000003,-2 1.1046,0 2,0.8954 2,2 0,1.1046 -0.8954,2 -2,2 z"
     id="path1" />
  <path
     style="fill:#000000;fill-opacity:1;stroke:#000000;stroke-width:0.614445;stroke-linecap:round;stroke-linejoin:round;stroke-dasharray:none;stroke-dashoffset:0;stroke-opacity:1"
     d="M 2.1347236,22.240276 16.125,8.25"
     id="path2" />
  <rect
     style="fill:#000000;fill-opacity:1;stroke:#000000;stroke-width:0.527936;stroke-linecap:round;stroke-linejoin:round;stroke-dasharray:none;stroke-dashoffset:0;stroke-opacity:1"
     id="rect3"
     width="3.3938181"
     height="3.393909"
     x="15.605012"
     y="-8.2017975"
     ry="0"
     transform="matrix(0.7164716,0.69761627,-0.69753375,0.71655193,0,0)" />
</svg>
